<svg
  xmlns="http://www.w3.org/2000/svg"
  viewBox="0 0 24 24"
  width="24"
  height="24"
  role="img"
  aria-label="Warning"
>
  <path
    d="M12 2.4c.6 0 1.15.32 1.44.85l9 16.05c.3.52.3 1.16 0 1.68s-.84.87-1.44.87H3c-.6 0-1.15-.34-1.44-.87s-.3-1.16 0-1.68l9-16.05c.29-.53.84-.85 1.44-.85Z"
    fill="#f7b500"
    stroke="#EA7200"
    stroke-width="1.6"
    stroke-linejoin="round"
  />
  
  <path 
    d="M10.6 8a1.4 1.4 0 0 1 2.8 0l-.7 6.2a.7.7 0 0 1-1.4 0z" 
    fill="#222222" 
  />
  <circle 
    cx="12" 
    cy="18.1" 
    r="1.3" 
    fill="#222222" 
  />
</svg>
